<svg xmlns="http://www.w3.org/2000/svg" fill="none" viewBox="-0.5 -0.5 24 24" height="24" width="24" id="Tab-Close--Streamline-Rounded----Material-Symbols.svg">
  <path fill="#344767" d="M6.229166666666667 18.208333333333336C5.845833333333333 18.208333333333336 5.510416666666667 18.064583333333335 5.222916666666667 17.777083333333334C4.935416666666667 17.489583333333336 4.791666666666667 17.154166666666665 4.791666666666667 16.770833333333336V3.354166666666667C4.791666666666667 2.9708333333333337 4.935416666666667 2.635416666666667 5.222916666666667 2.347916666666667C5.510416666666667 2.060416666666667 5.845833333333333 1.9166666666666667 6.229166666666667 1.9166666666666667H19.645833333333336C20.029166666666665 1.9166666666666667 20.364583333333336 2.060416666666667 20.652083333333334 2.347916666666667C20.939583333333335 2.635416666666667 21.083333333333336 2.9708333333333337 21.083333333333336 3.354166666666667V16.770833333333336C21.083333333333336 17.154166666666665 20.939583333333335 17.489583333333336 20.652083333333334 17.777083333333334C20.364583333333336 18.064583333333335 20.029166666666665 18.208333333333336 19.645833333333336 18.208333333333336H6.229166666666667ZM6.229166666666667 16.770833333333336H19.645833333333336V3.354166666666667H6.229166666666667V16.770833333333336ZM3.354166666666667 21.083333333333336C2.9708333333333337 21.083333333333336 2.635416666666667 20.939583333333335 2.347916666666667 20.652083333333334C2.060416666666667 20.364583333333336 1.9166666666666667 20.029166666666665 1.9166666666666667 19.645833333333336V5.510416666666667C1.9166666666666667 5.306770833333333 1.9859877083333333 5.136043750000001 2.124625 4.9981875C2.2631041666666665 4.8605229166666675 2.4348039583333336 4.791666666666667 2.639729166666667 4.791666666666667C2.844491458333333 4.791666666666667 3.0147585416666667 4.8605229166666675 3.1505208333333337 4.9981875C3.2862831249999997 5.136043750000001 3.354166666666667 5.306770833333333 3.354166666666667 5.510416666666667V19.645833333333336H17.489583333333336C17.693229166666665 19.645833333333336 17.86395625 19.71516875 18.001812500000003 19.853791666666666C18.139477083333333 19.992270833333333 18.208333333333336 20.163956250000002 18.208333333333336 20.368895833333333C18.208333333333336 20.573643750000002 18.139477083333333 20.743939583333333 18.001812500000003 20.879687500000003C17.86395625 21.015435416666666 17.693229166666665 21.083333333333336 17.489583333333336 21.083333333333336H3.354166666666667ZM11.428125000000001 12.578125L12.9375 11.068750000000001L14.446875 12.578125C14.590625000000001 12.721875 14.758333333333335 12.79375 14.950000000000001 12.79375C15.141666666666667 12.79375 15.309375000000001 12.721875 15.453125 12.578125C15.596874999999999 12.434375 15.668750000000003 12.266666666666667 15.668750000000003 12.075C15.668750000000003 11.883333333333335 15.596874999999999 11.715625 15.453125 11.571875L13.943750000000001 10.0625L15.453125 8.553125000000001C15.596874999999999 8.409375 15.668750000000003 8.241666666666667 15.668750000000003 8.05C15.668750000000003 7.858333333333333 15.596874999999999 7.690625000000001 15.453125 7.546875C15.309375000000001 7.403125 15.141666666666667 7.331250000000001 14.950000000000001 7.331250000000001C14.758333333333335 7.331250000000001 14.590625000000001 7.403125 14.446875 7.546875L12.9375 9.05625L11.428125000000001 7.546875C11.284375 7.403125 11.116666666666667 7.331250000000001 10.925 7.331250000000001C10.733333333333333 7.331250000000001 10.565625 7.403125 10.421875 7.546875C10.278125 7.690625000000001 10.20625 7.858333333333333 10.20625 8.05C10.20625 8.241666666666667 10.278125 8.409375 10.421875 8.553125000000001L11.93125 10.0625L10.421875 11.571875C10.278125 11.715625 10.20625 11.883333333333335 10.20625 12.075C10.20625 12.266666666666667 10.278125 12.434375 10.421875 12.578125C10.565625 12.721875 10.733333333333333 12.79375 10.925 12.79375C11.116666666666667 12.79375 11.284375 12.721875 11.428125000000001 12.578125Z" stroke-width="1"></path>
</svg>