<svg xmlns="http://www.w3.org/2000/svg" fill="none" viewBox="-0.5 -0.5 24 24" height="24" width="24" id="Storage--Streamline-Rounded----Material-Symbols.svg">
  <path fill="#344767" d="M4.647916666666666 19.166666666666668C4.160446041666667 19.166666666666668 3.743091875 18.993064583333336 3.3958541666666666 18.645812499999998C3.0486164583333335 18.298560416666668 2.875 17.88120625 2.875 17.39375C2.875 16.90629375 3.0486164583333335 16.488939583333334 3.3958541666666666 16.1416875C3.743091875 15.794435416666667 4.160446041666667 15.620833333333335 4.647916666666666 15.620833333333335H18.352083333333333C18.839731250000003 15.620833333333335 19.257085416666666 15.794435416666667 19.604145833333334 16.1416875C19.951397916666668 16.488939583333334 20.125 16.90629375 20.125 17.39375C20.125 17.88120625 19.951397916666668 18.298560416666668 19.604145833333334 18.645812499999998C19.257085416666666 18.993064583333336 18.839731250000003 19.166666666666668 18.352083333333333 19.166666666666668H4.647916666666666ZM4.647916666666666 7.379166666666667C4.160446041666667 7.379166666666667 3.743091875 7.2055645833333335 3.3958541666666666 6.8583125C3.0486164583333335 6.511252083333333 2.875 6.093897916666667 2.875 5.60625C2.875 5.118602083333333 3.0486164583333335 4.701262291666667 3.3958541666666666 4.3541875C3.743091875 4.006949791666667 4.160446041666667 3.8333333333333335 4.647916666666666 3.8333333333333335H18.352083333333333C18.839731250000003 3.8333333333333335 19.257085416666666 4.006949791666667 19.604145833333334 4.3541875C19.951397916666668 4.701262291666667 20.125 5.118602083333333 20.125 5.60625C20.125 6.093897916666667 19.951397916666668 6.511252083333333 19.604145833333334 6.8583125C19.257085416666666 7.2055645833333335 18.839731250000003 7.379166666666667 18.352083333333333 7.379166666666667H4.647916666666666ZM4.647916666666666 13.272916666666667C4.160446041666667 13.272916666666667 3.743091875 13.099314583333335 3.3958541666666666 12.752062500000001C3.0486164583333335 12.404810416666667 2.875 11.98745625 2.875 11.5C2.875 11.01254375 3.0486164583333335 10.595189583333333 3.3958541666666666 10.2479375C3.743091875 9.900685416666667 4.160446041666667 9.727083333333335 4.647916666666666 9.727083333333335H18.352083333333333C18.839731250000003 9.727083333333335 19.257085416666666 9.900685416666667 19.604145833333334 10.2479375C19.951397916666668 10.595189583333333 20.125 11.01254375 20.125 11.5C20.125 11.98745625 19.951397916666668 12.404810416666667 19.604145833333334 12.752062500000001C19.257085416666666 13.099314583333335 18.839731250000003 13.272916666666667 18.352083333333333 13.272916666666667H4.647916666666666ZM5.169968750000001 6.46875C5.41290625 6.46875 5.618229166666667 6.386572916666667 5.7859375 6.222218750000001C5.953645833333334 6.057864583333334 6.0375 5.85421875 6.0375 5.61128125C6.0375 5.36834375 5.955322916666667 5.163020833333333 5.79096875 4.995312500000001C5.626614583333334 4.827604166666666 5.422968750000001 4.74375 5.18003125 4.74375C4.93709375 4.74375 4.731770833333334 4.825927083333334 4.5640625 4.990281250000001C4.396354166666667 5.154635416666667 4.3125 5.35828125 4.3125 5.60121875C4.3125 5.84415625 4.394677083333334 6.049479166666667 4.55903125 6.2171875C4.723385416666667 6.384895833333333 4.927031250000001 6.46875 5.169968750000001 6.46875ZM5.169968750000001 12.3625C5.41290625 12.3625 5.618229166666667 12.280322916666666 5.7859375 12.11596875C5.953645833333334 11.951614583333333 6.0375 11.74796875 6.0375 11.50503125C6.0375 11.26209375 5.955322916666667 11.056770833333333 5.79096875 10.889062500000001C5.626614583333334 10.721354166666668 5.422968750000001 10.6375 5.18003125 10.6375C4.93709375 10.6375 4.731770833333334 10.719677083333334 4.5640625 10.884031250000001C4.396354166666667 11.048385416666667 4.3125 11.252031250000002 4.3125 11.49496875C4.3125 11.737906250000002 4.394677083333334 11.943229166666667 4.55903125 12.1109375C4.723385416666667 12.278645833333334 4.927031250000001 12.3625 5.169968750000001 12.3625ZM5.169968750000001 18.25625C5.41290625 18.25625 5.618229166666667 18.174072916666667 5.7859375 18.00971875C5.953645833333334 17.845364583333335 6.0375 17.641718750000003 6.0375 17.39878125C6.0375 17.15584375 5.955322916666667 16.950520833333336 5.79096875 16.7828125C5.626614583333334 16.615104166666665 5.422968750000001 16.53125 5.18003125 16.53125C4.93709375 16.53125 4.731770833333334 16.613427083333335 4.5640625 16.77778125C4.396354166666667 16.94213541666667 4.3125 17.14578125 4.3125 17.38871875C4.3125 17.631656250000002 4.394677083333334 17.83697916666667 4.55903125 18.004687500000003C4.723385416666667 18.172395833333333 4.927031250000001 18.25625 5.169968750000001 18.25625Z" stroke-width="1"></path>
</svg>